<?xml version="1.0" encoding="utf-8"?>
<!-- Generator: Adobe Illustrator 17.1.0, SVG Export Plug-In . SVG Version: 6.00 Build 0)  -->
<!DOCTYPE svg PUBLIC "-//W3C//DTD SVG 1.1//EN" "http://www.w3.org/Graphics/SVG/1.1/DTD/svg11.dtd">
<svg version="1.1" id="Layer_1" xmlns="http://www.w3.org/2000/svg" xmlns:xlink="http://www.w3.org/1999/xlink" x="0px" y="0px"
	 viewBox="0 0 612 792" enable-background="new 0 0 612 792" xml:space="preserve">
<path fill="#CECECD" d="M338,396c0,17.672-14.328,32-32,32s-32-14.328-32-32s14.328-32,32-32S338,378.328,338,396z"/>
<path fill="#9B9C9C" d="M306,436c-22.09,0-40-17.91-40-40s17.91-40,40-40s40,17.91,40,40C345.973,418.082,328.082,435.973,306,436z
	 M306,372c-13.254,0-24,10.746-24,24s10.746,24,24,24s24-10.746,24-24S319.254,372,306,372z"/>
<path fill="#D9D9D8" d="M306,408c-6.629,0-10.291-5.595-12-12c-2.443-9.158,4.377-13.029,12-12c6.569,0.887,12,5.371,12,12
	S312.629,408,306,408z"/>
</svg>
