<?xml version="1.0" encoding="utf-8"?>
<!-- Generator: Adobe Illustrator 17.1.0, SVG Export Plug-In . SVG Version: 6.00 Build 0)  -->
<!DOCTYPE svg PUBLIC "-//W3C//DTD SVG 1.1//EN" "http://www.w3.org/Graphics/SVG/1.1/DTD/svg11.dtd">
<svg version="1.1" id="Layer_1" xmlns="http://www.w3.org/2000/svg" xmlns:xlink="http://www.w3.org/1999/xlink" x="0px" y="0px"
	 viewBox="0 0 612 792" enable-background="new 0 0 612 792" xml:space="preserve">
<path fill="#CECECD" d="M330,396c0,13.254-10.746,24-24,24s-24-10.746-24-24s10.746-24,24-24S330,382.746,330,396z"/>
<path fill="#787E82" d="M306,428c-17.672,0-32-14.328-32-32s14.328-32,32-32s32,14.328,32,32S323.672,428,306,428z M306,380
	c-8.836,0-16,7.164-16,16s7.164,16,16,16s16-7.164,16-16S314.836,380,306,380z"/>
</svg>
