<svg height="464pt" viewBox="0 -104 464 464" width="464pt" xmlns="http://www.w3.org/2000/svg"><path d="m296 32-8 8h-120v-8c0-17.671875 14.328125-32 32-32h64c17.671875 0 32 14.328125 32 32zm0 0" fill="#99d8aa"/><path d="m172.441406 16c-2.878906 4.84375-4.414062 10.367188-4.441406 16h128c-.027344-5.632812-1.5625-11.15625-4.441406-16zm0 0" fill="#8dc79d"/><path d="m24 32h128v32h-128zm0 0" fill="#6b9777"/><path d="m128 32h24v32h-24zm0 0" fill="#5e8569"/><path d="m24 32h24v32h-24zm0 0" fill="#5e8569"/><path d="m144 32h176v72h-176zm0 0" fill="#85bc94"/><path d="m144 80h176v16h-176zm0 0" fill="#7aac88"/><path d="m0 24h32v48h-32zm0 0" fill="#85bc94"/><g fill="#8dc79d"><path d="m224 56h16v16h-16zm0 0"/><path d="m256 56h16v16h-16zm0 0"/><path d="m192 56h16v16h-16zm0 0"/><path d="m288 56h32v16h-32zm0 0"/></g><path d="m400 144v8h-304v-8l12.351562-37.054688c2.175782-6.539062 8.292969-10.945312 15.183594-10.945312h248.929688c6.894531-.007812 13.019531 4.402344 15.199218 10.945312zm0 0" fill="#6b9777"/><path d="m448 192v32l-64 24h-296l-80-64 18.128906-30.207031c3.640625-6.078125 10.203125-9.796875 17.285156-9.792969h372.859376c9.390624 0 17.730468 6.007812 20.703124 14.921875zm0 0" fill="#5e8569"/><path d="m224 216c0 17.671875-14.328125 32-32 32s-32-14.328125-32-32 14.328125-32 32-32 32 14.328125 32 32zm0 0" fill="#cdcdcd"/><path d="m192 256c-22.089844 0-40-17.910156-40-40s17.910156-40 40-40 40 17.910156 40 40c-.027344 22.082031-17.917969 39.972656-40 40zm0-64c-13.253906 0-24 10.746094-24 24s10.746094 24 24 24 24-10.746094 24-24-10.746094-24-24-24zm0 0" fill="#9c9c9c"/><path d="m192 228c-6.628906 0-12-5.371094-12-12s5.371094-12 12-12 12 5.371094 12 12-5.371094 12-12 12zm0 0" fill="#d9d9d9"/><path d="m320 216c0 17.671875-14.328125 32-32 32s-32-14.328125-32-32 14.328125-32 32-32 32 14.328125 32 32zm0 0" fill="#cdcdcd"/><path d="m288 228c-6.628906 0-12-5.371094-12-12s5.371094-12 12-12 12 5.371094 12 12-5.371094 12-12 12zm0 0" fill="#d9d9d9"/><path d="m408 216c0 17.671875-14.328125 32-32 32s-32-14.328125-32-32 14.328125-32 32-32 32 14.328125 32 32zm0 0" fill="#cdcdcd"/><path d="m376 256c-22.089844 0-40-17.910156-40-40s17.910156-40 40-40 40 17.910156 40 40c-.027344 22.082031-17.917969 39.972656-40 40zm0-64c-13.253906 0-24 10.746094-24 24s10.746094 24 24 24 24-10.746094 24-24-10.746094-24-24-24zm0 0" fill="#9c9c9c"/><path d="m288 256c-22.089844 0-40-17.910156-40-40s17.910156-40 40-40 40 17.910156 40 40c-.027344 22.082031-17.917969 39.972656-40 40zm0-64c-13.253906 0-24 10.746094-24 24s10.746094 24 24 24 24-10.746094 24-24-10.746094-24-24-24zm0 0" fill="#9c9c9c"/><path d="m376 228c-6.628906 0-12-5.371094-12-12s5.371094-12 12-12 12 5.371094 12 12-5.371094 12-12 12zm0 0" fill="#d9d9d9"/><path d="m136 216c0 17.671875-14.328125 32-32 32s-32-14.328125-32-32 14.328125-32 32-32 32 14.328125 32 32zm0 0" fill="#cdcdcd"/><path d="m104 256c-22.089844 0-40-17.910156-40-40s17.910156-40 40-40 40 17.910156 40 40c-.027344 22.082031-17.917969 39.972656-40 40zm0-64c-13.253906 0-24 10.746094-24 24s10.746094 24 24 24 24-10.746094 24-24-10.746094-24-24-24zm0 0" fill="#9c9c9c"/><path d="m104 228c-6.628906 0-12-5.371094-12-12s5.371094-12 12-12 12 5.371094 12 12-5.371094 12-12 12zm0 0" fill="#d9d9d9"/><path d="m64 184c0 13.253906-10.746094 24-24 24s-24-10.746094-24-24 10.746094-24 24-24 24 10.746094 24 24zm0 0" fill="#cdcdcd"/><path d="m372.0625 256h-272.476562c-9.355469-.007812-18.414063-3.289062-25.601563-9.273438l-39.105469-32.582031 10.242188-12.289062 39.101562 32.585937c4.3125 3.601563 9.746094 5.582032 15.363282 5.597656h272.476562c1.960938 0 3.910156-.238281 5.808594-.710937l51.914062-14.976563 4.429688 15.375-52.183594 15.042969c-3.257812.828125-6.605469 1.242188-9.96875 1.230469zm0 0" fill="#62666a"/><path d="m39.511719 167.988281.980469-15.96875 392 24.003907-.976563 15.96875zm0 0" fill="#62666a"/><path d="m40 216c-17.671875 0-32-14.328125-32-32s14.328125-32 32-32 32 14.328125 32 32-14.328125 32-32 32zm0-48c-8.835938 0-16 7.164062-16 16s7.164062 16 16 16 16-7.164062 16-16-7.164062-16-16-16zm0 0" fill="#787d82"/><path d="m456 208c0 13.253906-10.746094 24-24 24s-24-10.746094-24-24 10.746094-24 24-24 24 10.746094 24 24zm0 0" fill="#cdcdcd"/><path d="m432 240c-17.671875 0-32-14.328125-32-32s14.328125-32 32-32 32 14.328125 32 32-14.328125 32-32 32zm0-48c-8.835938 0-16 7.164062-16 16s7.164062 16 16 16 16-7.164062 16-16-7.164062-16-16-16zm0 0" fill="#787d82"/></svg>